<svg width="1920" height="1989" viewBox="0 0 1920 1989" fill="none" xmlns="http://www.w3.org/2000/svg">
<path fill-rule="evenodd" clip-rule="evenodd" d="M-2 627V208.661C-2 208.661 9.00573 442.279 411.215 527.999C813.424 613.719 1385.22 520.755 1640.35 361.991C1895.49 203.228 1919 1 1919 1V620V627V639V681V1229.45L1925 1229.5C1925 1229.5 1935 1465.5 1725 1531.5C1631.84 1560.78 1586.7 1592.42 1545.22 1621.49C1493.21 1657.95 1446.97 1690.36 1319 1709C1199.09 1726.46 1120.23 1703.84 1053.99 1684.84C993.176 1667.39 943.009 1653 881.5 1675.5C818.572 1698.52 794.255 1728.85 769.44 1759.8C743.583 1792.05 717.185 1824.98 646 1851C577.652 1875.99 490.459 1871.33 410.827 1867.07C327.929 1862.64 253.223 1858.65 216.5 1889C144.5 1948.5 4 1988 4 1988V1230H-1V681V639V627H-2Z" fill="#FBB03B"/>
<path d="M-2 208.661L-1.50055 208.637L-2.5 208.661H-2ZM-2 627H-2.5V627.5H-2V627ZM411.215 527.999L411.111 528.488L411.215 527.999ZM1640.35 361.991L1640.62 362.416L1640.35 361.991ZM1919 1H1919.5L1918.5 0.942256L1919 1ZM1919 1229.45H1918.5V1229.94L1919 1229.95L1919 1229.45ZM1925 1229.5L1925.5 1229.48L1925.48 1229L1925 1229L1925 1229.5ZM1545.22 1621.49L1544.94 1621.08L1545.22 1621.49ZM1319 1709L1318.93 1708.51L1319 1709ZM1053.99 1684.84L1053.85 1685.32L1053.99 1684.84ZM881.5 1675.5L881.672 1675.97L881.5 1675.5ZM769.44 1759.8L769.83 1760.11L769.44 1759.8ZM646 1851L646.172 1851.47L646 1851ZM410.827 1867.07L410.8 1867.57L410.827 1867.07ZM216.5 1889L216.181 1888.61L216.5 1889ZM4 1988H3.5V1988.66L4.13532 1988.48L4 1988ZM4 1230H4.5V1229.5H4V1230ZM-1 1230H-1.5V1230.5H-1V1230ZM-1 627H-0.5V626.5H-1V627ZM-2.5 208.661V627H-1.5V208.661H-2.5ZM411.319 527.51C210.309 484.67 107.118 404.889 54.1757 335.88C27.7014 301.372 13.7819 269.545 6.48109 246.353C2.83059 234.756 0.834747 225.319 -0.248262 218.785C-0.789763 215.517 -1.10304 212.976 -1.28085 211.254C-1.36975 210.393 -1.42478 209.736 -1.45753 209.296C-1.47391 209.076 -1.48472 208.91 -1.4914 208.8C-1.49475 208.745 -1.49706 208.703 -1.49853 208.676C-1.49926 208.663 -1.49978 208.653 -1.50011 208.646C-1.50027 208.643 -1.50038 208.641 -1.50046 208.639C-1.50053 208.637 -1.50055 208.637 -2 208.661C-2.49945 208.684 -2.49938 208.685 -2.49928 208.688C-2.49918 208.689 -2.49903 208.693 -2.49884 208.696C-2.49845 208.704 -2.49787 208.715 -2.49708 208.73C-2.4955 208.759 -2.49305 208.803 -2.48957 208.86C-2.48261 208.975 -2.4715 209.146 -2.45477 209.37C-2.42133 209.82 -2.36546 210.486 -2.27556 211.356C-2.09576 213.098 -1.77981 215.66 -1.2348 218.948C-0.144806 225.525 1.86144 235.008 5.52724 246.653C12.859 269.943 26.829 301.878 53.3823 336.489C106.495 405.719 209.912 485.608 411.111 528.488L411.319 527.51ZM1640.09 361.567C1512.61 440.896 1305.95 503.815 1080.87 536.182C855.79 568.548 612.35 570.354 411.319 527.51L411.111 528.488C612.289 571.364 855.853 569.549 1081.01 537.172C1306.16 504.796 1512.97 441.85 1640.62 362.416L1640.09 361.567ZM1919 1C1918.5 0.942256 1918.5 0.942747 1918.5 0.944008C1918.5 0.945455 1918.5 0.947485 1918.5 0.950376C1918.5 0.956158 1918.5 0.96501 1918.5 0.976918C1918.5 1.00073 1918.49 1.03677 1918.49 1.08492C1918.47 1.18121 1918.46 1.32592 1918.43 1.51812C1918.38 1.90251 1918.3 2.47685 1918.18 3.23363C1917.95 4.7472 1917.57 6.99053 1917 9.90365C1915.86 15.7299 1913.95 24.2353 1910.86 34.94C1904.68 56.3496 1893.78 86.5561 1874.91 121.723C1837.18 192.053 1767.58 282.234 1640.09 361.567L1640.62 362.416C1768.26 282.985 1837.98 192.67 1875.79 122.196C1894.7 86.96 1905.62 56.6869 1911.82 35.2174C1914.92 24.4827 1916.84 15.9487 1917.98 10.0954C1918.55 7.16883 1918.93 4.91238 1919.17 3.38611C1919.29 2.62297 1919.37 2.04237 1919.42 1.65181C1919.45 1.45653 1919.47 1.30876 1919.48 1.20944C1919.48 1.15978 1919.49 1.12223 1919.49 1.09691C1919.49 1.08424 1919.49 1.07464 1919.5 1.06811C1919.5 1.06484 1919.5 1.06225 1919.5 1.06062C1919.5 1.0588 1919.5 1.05774 1919 1ZM1919.5 620V1H1918.5V620H1919.5ZM1918.5 620V627H1919.5V620H1918.5ZM1918.5 627V639H1919.5V627H1918.5ZM1918.5 639V681H1919.5V639H1918.5ZM1918.5 681V1229.45H1919.5V681H1918.5ZM1919 1229.95L1925 1230L1925 1229L1919 1228.95L1919 1229.95ZM1925 1229.5C1924.5 1229.52 1924.5 1229.52 1924.5 1229.52C1924.5 1229.53 1924.5 1229.53 1924.5 1229.53C1924.5 1229.54 1924.5 1229.55 1924.5 1229.56C1924.5 1229.59 1924.5 1229.63 1924.51 1229.69C1924.51 1229.8 1924.52 1229.97 1924.52 1230.19C1924.53 1230.64 1924.55 1231.3 1924.56 1232.17C1924.58 1233.91 1924.59 1236.47 1924.52 1239.76C1924.38 1246.33 1923.95 1255.79 1922.78 1267.36C1920.44 1290.48 1915.14 1322.01 1903.28 1355.58C1879.56 1422.73 1829.66 1498.08 1724.85 1531.02L1725.15 1531.98C1830.34 1498.92 1880.44 1423.27 1904.22 1355.92C1916.11 1322.24 1921.43 1290.64 1923.78 1267.46C1924.95 1255.86 1925.38 1246.37 1925.52 1239.78C1925.59 1236.48 1925.58 1233.91 1925.56 1232.16C1925.55 1231.29 1925.53 1230.62 1925.52 1230.17C1925.52 1229.94 1925.51 1229.77 1925.51 1229.65C1925.5 1229.6 1925.5 1229.55 1925.5 1229.52C1925.5 1229.51 1925.5 1229.5 1925.5 1229.49C1925.5 1229.49 1925.5 1229.48 1925.5 1229.48C1925.5 1229.48 1925.5 1229.48 1925 1229.5ZM1724.85 1531.02C1631.62 1560.32 1586.43 1592 1544.94 1621.08L1545.51 1621.9C1586.97 1592.84 1632.06 1561.23 1725.15 1531.98L1724.85 1531.02ZM1544.94 1621.08C1518.93 1639.31 1494.4 1656.5 1460.39 1671.47C1426.39 1686.44 1382.88 1699.19 1318.93 1708.51L1319.07 1709.49C1383.09 1700.17 1426.69 1687.4 1460.8 1672.38C1494.9 1657.37 1519.51 1640.13 1545.51 1621.9L1544.94 1621.08ZM1318.93 1708.51C1199.13 1725.95 1120.35 1703.36 1054.13 1684.36L1053.85 1685.32C1120.11 1704.33 1199.06 1726.98 1319.07 1709.49L1318.93 1708.51ZM1054.13 1684.36C993.328 1666.92 943.009 1652.47 881.328 1675.03L881.672 1675.97C943.008 1653.54 993.024 1667.87 1053.85 1685.32L1054.13 1684.36ZM881.328 1675.03C818.272 1698.09 793.884 1728.51 769.05 1759.49L769.83 1760.11C794.625 1729.18 818.872 1698.94 881.672 1675.97L881.328 1675.03ZM769.05 1759.49C756.12 1775.61 743.085 1791.87 724.399 1807.35C705.718 1822.83 681.373 1837.54 645.828 1850.53L646.172 1851.47C681.812 1838.44 706.259 1823.68 725.037 1808.12C743.811 1792.57 756.903 1776.23 769.83 1760.11L769.05 1759.49ZM645.828 1850.53C577.596 1875.48 490.516 1870.83 410.853 1866.57L410.8 1867.57C490.402 1871.83 577.708 1876.5 646.172 1851.47L645.828 1850.53ZM410.853 1866.57C369.413 1864.36 329.98 1862.25 296.315 1864.5C262.663 1866.74 234.67 1873.34 216.181 1888.61L216.819 1889.39C235.053 1874.32 262.774 1867.73 296.381 1865.49C329.974 1863.25 369.342 1865.36 410.8 1867.57L410.853 1866.57ZM216.181 1888.61C180.246 1918.31 127.183 1943.04 83.0674 1960.35C61.0164 1969 41.2137 1975.79 26.924 1980.42C19.7793 1982.74 14.0132 1984.51 10.0339 1985.71C8.04423 1986.31 6.50128 1986.76 5.45607 1987.06C4.93346 1987.21 4.53529 1987.33 4.26793 1987.4C4.13425 1987.44 4.03328 1987.47 3.9658 1987.49C3.93206 1987.5 3.9067 1987.51 3.88981 1987.51C3.88137 1987.51 3.87505 1987.52 3.87085 1987.52C3.86875 1987.52 3.86721 1987.52 3.86616 1987.52C3.86515 1987.52 3.86468 1987.52 4 1988C4.13532 1988.48 4.13592 1988.48 4.13705 1988.48C4.13814 1988.48 4.13981 1988.48 4.14199 1988.48C4.14634 1988.48 4.15283 1988.48 4.16144 1988.47C4.17865 1988.47 4.20435 1988.46 4.23842 1988.45C4.30655 1988.43 4.4082 1988.4 4.54256 1988.37C4.81127 1988.29 5.21083 1988.17 5.73485 1988.02C6.7829 1987.72 8.32882 1987.26 10.3216 1986.67C14.3071 1985.47 20.0801 1983.69 27.2323 1981.37C41.5363 1976.74 61.3586 1969.94 83.4326 1961.28C127.567 1943.96 180.754 1919.19 216.819 1889.39L216.181 1888.61ZM4.5 1988V1230H3.5V1988H4.5ZM4 1229.5H-1V1230.5H4V1229.5ZM-0.5 1230V681H-1.5V1230H-0.5ZM-0.5 681V639H-1.5V681H-0.5ZM-0.5 639V627H-1.5V639H-0.5ZM-2 627.5H-1V626.5H-2V627.5Z" fill="#FBB03B"/>
</svg>
