<?xml version="1.0" encoding="UTF-8" standalone="no"?>
<svg
   width="1920"
   height="1989"
   viewBox="0 0 1920 1989"
   fill="none"
   version="1.1"
   id="svg6"
   sodipodi:docname="Union_edited.svg"
   inkscape:version="1.1 (c68e22c387, 2021-05-23)"
   xmlns:inkscape="http://www.inkscape.org/namespaces/inkscape"
   xmlns:sodipodi="http://sodipodi.sourceforge.net/DTD/sodipodi-0.dtd"
   xmlns="http://www.w3.org/2000/svg"
   xmlns:svg="http://www.w3.org/2000/svg">
  <defs
     id="defs10" />
  <sodipodi:namedview
     id="namedview8"
     pagecolor="#ffffff"
     bordercolor="#666666"
     borderopacity="1.0"
     inkscape:pageshadow="2"
     inkscape:pageopacity="0.0"
     inkscape:pagecheckerboard="true"
     showgrid="false"
     showborder="false"
     inkscape:zoom="0.35355339"
     inkscape:cx="1071.9739"
     inkscape:cy="905.09668"
     inkscape:window-width="1920"
     inkscape:window-height="1046"
     inkscape:window-x="-11"
     inkscape:window-y="-11"
     inkscape:window-maximized="1"
     inkscape:current-layer="svg6" />
  <path
     fill-rule="evenodd"
     clip-rule="evenodd"
     d="M -2,627 V 208.661 c 0,0 11.00573,233.618 413.215,319.338 402.209,85.72 974.005,-7.244 1229.135,-166.008 C 1895.49,203.228 1919,1 1919,1 v 619 7 12 42 l 6.5,548.48 -0.5,0.02 c 0,0 10,236 -200,302 -93.16,29.28 -138.3,60.92 -179.78,89.99 -52.01,36.46 -98.25,68.87 -226.22,87.51 -119.91,17.46 -198.77,-5.16 -265.01,-24.16 -60.814,-17.45 -110.981,-31.84 -172.49,-9.34 -62.928,23.02 -87.245,53.35 -112.06,84.3 -25.857,32.25 -52.255,65.18 -123.44,91.2 -68.348,24.99 -155.541,20.33 -235.173,16.07 -82.898,-4.43 -157.604,-8.42 -194.327,21.93 -72,59.5 -218.5,99.0859 -218.5,99.0859 L -1,1230.5 V 1230 681 639 627 Z"
     fill="#fbb03b"
     id="path2"
     sodipodi:nodetypes="ccscccccccccccccscccccccccc" />
  <path
     d="M -2,208.661 -1.50055,208.637 -2.5,208.661 Z M -2,627 h -0.5 v 0.5 H -2 Z m 413.215,-99.001 -0.104,0.489 z m 1229.135,-166.008 0.27,0.425 z M 1919,1 h 0.5 l -1,-0.057744 z m 0,1228.45 h -0.5 v 0.49 l 0.5,0.01 z m 6,0.05 0.5,-0.02 -0.02,-0.48 H 1925 Z m -379.78,391.99 -0.28,-0.41 z M 1319,1709 l -0.07,-0.49 z m -265.01,-24.16 -0.14,0.48 z m -172.49,-9.34 0.172,0.47 z m -112.06,84.3 0.39,0.31 z M 646,1851 l 0.172,0.47 z m -235.173,16.07 -0.027,0.5 z M 216.5,1889 l -0.319,-0.39 z m -217.953125,98.3594 h -0.5 v 0.66 l 0.63532,-0.18 z M 4,1230 h 0.5 v -0.5 H 4 Z m -5,0 h -0.5 v 0.5 H -1 Z m 0,-603 h 0.5 v -0.5 H -1 Z M -2.5,208.661 V 627 h 1 V 208.661 Z M 411.319,527.51 C 210.309,484.67 107.118,404.889 54.1757,335.88 27.7014,301.372 13.7819,269.545 6.48109,246.353 2.83059,234.756 0.834747,225.319 -0.248262,218.785 c -0.541501,-3.268 -0.854778,-5.809 -1.032588,-7.531 -0.0889,-0.861 -0.14393,-1.518 -0.17668,-1.958 -0.01638,-0.22 -0.02719,-0.386 -0.03387,-0.496 -0.00335,-0.055 -0.00566,-0.097 -0.00713,-0.124 -7.3e-4,-0.013 -0.00125,-0.023 -0.00158,-0.03 -1.6e-4,-0.003 -2.7e-4,-0.005 -3.5e-4,-0.007 -7e-5,-0.002 -9e-5,-0.002 -0.49954,0.022 -0.49945,0.023 -0.49938,0.024 -0.49928,0.027 1e-4,0.001 2.5e-4,0.005 4.4e-4,0.008 3.9e-4,0.008 9.7e-4,0.019 0.00176,0.034 0.00158,0.029 0.00403,0.073 0.00751,0.13 0.00696,0.115 0.01807,0.286 0.0348,0.51 0.03344,0.45 0.08931,1.116 0.17921,1.986 0.1798,1.742 0.49575,4.304 1.04076,7.592 1.089994,6.577 3.09624,16.06 6.76204,27.705 7.33176,23.29 21.30176,55.225 47.85506,89.836 53.1127,69.23 156.5297,149.119 357.7287,191.999 z M 1640.09,361.567 c -127.48,79.329 -334.14,142.248 -559.22,174.615 -225.08,32.366 -468.52,34.172 -669.551,-8.672 l -0.208,0.978 c 201.178,42.876 444.742,41.061 669.899,8.684 225.15,-32.376 431.96,-95.322 559.61,-174.756 z M 1919,1 c -0.5,-0.057744 -0.5,-0.057253 -0.5,-0.055992 v 0.006368 0.026542 c 0,0.023812 -0.01,0.059852 -0.01,0.108002 -0.02,0.09629 -0.03,0.241 -0.06,0.4332 -0.05,0.38439 -0.13,0.95873 -0.25,1.71551 -0.23,1.51357 -0.61,3.7569 -1.18,6.67002 -1.14,5.82625 -3.05,14.33165 -6.14,25.03635 -6.18,21.4096 -17.08,51.6161 -35.95,86.783 -37.73,70.33 -107.33,160.511 -234.82,239.844 l 0.53,0.849 c 127.64,-79.431 197.36,-169.746 235.17,-240.22 18.91,-35.236 29.83,-65.5091 36.03,-86.9786 3.1,-10.7347 5.02,-19.2687 6.16,-25.122 0.57,-2.92657 0.95,-5.18302 1.19,-6.70929 0.12,-0.76314 0.2,-1.34374 0.25,-1.7343 0.03,-0.19528 0.05,-0.34305 0.06,-0.44237 0,-0.04966 0.01,-0.08721 0.01,-0.11253 0,-0.01267 0,-0.02227 0.01,-0.0288 V 1.06062 c 0,-0.00182 0,-0.00288 -0.5,-0.06062 z m 0.5,619 L 1925.5681,0.85645423 1918.5,1 v 619 z m -1,0 v 7 h 1 v -7 z m 0,7 v 12 h 1 v -12 z m 0,12 v 42 h 1 v -42 z m 0,42 v 548.45 h 1 V 681 Z m 0.5,548.95 6,0.05 v -1 l -6,-0.05 z m 6,-0.45 -0.5,0.02 v 0.01 0.03 c 0,0.03 0,0.07 0.01,0.13 0,0.11 0.01,0.28 0.01,0.5 0.01,0.45 0.03,1.11 0.04,1.98 0.02,1.74 0.03,4.3 -0.04,7.59 -0.14,6.57 -0.57,16.03 -1.74,27.6 -2.34,23.12 -7.64,54.65 -19.5,88.22 -23.72,67.15 -73.62,142.5 -178.43,175.44 l 0.3,0.96 c 105.19,-33.06 155.29,-108.71 179.07,-176.06 11.89,-33.68 17.21,-65.28 19.56,-88.46 1.17,-11.6 1.6,-21.09 1.74,-27.68 0.07,-3.3 0.06,-5.87 0.04,-7.62 -0.01,-0.87 -0.03,-1.54 -0.04,-1.99 0,-0.23 -0.01,-0.4 -0.01,-0.52 -0.01,-0.05 -0.01,-0.1 -0.01,-0.13 v -0.03 -0.01 z m -200.15,301.52 c -93.23,29.3 -138.42,60.98 -179.91,90.06 l 0.57,0.82 c 41.46,-29.06 86.55,-60.67 179.64,-89.92 z m -179.91,90.06 c -26.01,18.23 -50.54,35.42 -84.55,50.39 -34,14.97 -77.51,27.72 -141.46,37.04 l 0.14,0.98 c 64.02,-9.32 107.62,-22.09 141.73,-37.11 34.1,-15.01 58.71,-32.25 84.71,-50.48 z m -226.01,87.43 c -119.8,17.44 -198.58,-5.15 -264.8,-24.15 l -0.28,0.96 c 66.26,19.01 145.21,41.66 265.22,24.17 z m -264.8,-24.15 c -60.802,-17.44 -111.121,-31.89 -172.802,-9.33 l 0.344,0.94 c 61.336,-22.43 111.352,-8.1 172.178,9.35 z m -172.802,-9.33 c -63.056,23.06 -87.444,53.48 -112.278,84.46 l 0.78,0.62 c 24.795,-30.93 49.042,-61.17 111.842,-84.14 z m -112.278,84.46 c -12.93,16.12 -25.965,32.38 -44.651,47.86 -18.681,15.48 -43.026,30.19 -78.571,43.18 l 0.344,0.94 c 35.64,-13.03 60.087,-27.79 78.865,-43.35 18.774,-15.55 31.866,-31.89 44.793,-48.01 z m -123.222,91.04 c -68.232,24.95 -155.312,20.3 -234.975,16.04 l -0.053,1 c 79.602,4.26 166.908,8.93 235.372,-16.1 z m -234.975,16.04 c -41.44,-2.21 -80.873,-4.32 -114.538,-2.07 -33.652,2.24 -61.645,8.84 -80.134,24.11 l 0.638,0.78 c 18.234,-15.07 45.955,-21.66 79.562,-23.9 33.593,-2.24 72.961,-0.13 114.419,2.08 z m -194.672,22.04 c -35.935,29.7 -84.97633,46.7402 -129.09193,64.0502 -22.051,8.65 -46.902885,19.5059 -61.192585,24.1359 -7.1447,2.32 -7.80516,3.542 -11.78446,4.742 -1.98967,0.6 -8.6493081,3.1779 -9.6945181,3.4779 -0.52261,0.15 -5.3353419,1.6734 -5.6027019,1.7434 -0.13368,0.04 -0.23465,0.07 -0.30213,0.09 -0.03374,0.01 -0.0591,0.02 -0.07599,0.02 -0.00844,0 -0.01476,0.01 -0.01896,0.01 h -0.00469 c -0.00101,0 -0.00148,0 0.13384,0.48 0.13532,0.48 0.13592,0.48 0.13705,0.48 h 0.00494 c 0.00435,0 0.01084,0 0.01945,-0.01 0.01721,0 0.04291,-0.01 0.07698,-0.02 0.06813,-0.02 0.16978,-0.05 0.30414,-0.08 0.26871,-0.08 5.5137251,-1.7139 6.0377451,-1.8639 1.04805,-0.3 7.4360149,-3.1055 9.4287949,-3.6955 3.9855,-1.2 4.286688,-1.4852 11.438888,-3.8052 14.304,-4.63 39.164436,-12.9768 61.238436,-21.6368 C 131.3677,1939.408 180.754,1919.19 216.819,1889.39 Z M -0.953125,1987.3594 4.5,1230 h -1 l -5.453125,757.3594 z M 4,1229.5 h -5 v 1 h 5 z m -4.5,0.5 V 681 h -1 v 549 z m 0,-549 v -42 h -1 v 42 z m 0,-42 v -12 h -1 v 12 z M -2,627.5 h 1 v -1 h -1 z"
     fill="#fbb03b"
     id="path4"
     sodipodi:nodetypes="ccccccccccccccccccccccccccccccccccccccccccccccccccccccccccccccccccccccccccccccccccsssssscccccccccsccccccsccsscscccssccccsssccscsscccccccccccccccccccccccccccccccccsccssccccccssccsccccccccccccccccccccccccccccccccccccccccccccccccccccsscssssssscscsccccccccccccccccccccccccccccccccccc" />
</svg>
